<?xml version="1.0" encoding="UTF-8"?>
<!DOCTYPE svg PUBLIC "-//W3C//DTD SVG 1.1//EN" "http://www.w3.org/Graphics/SVG/1.1/DTD/svg11.dtd">
<!-- Creator: CorelDRAW 2021 (64-Bit) -->
<svg xmlns="http://www.w3.org/2000/svg" xml:space="preserve" width="46.9274mm" height="31.2669mm" version="1.1" style="shape-rendering:geometricPrecision; text-rendering:geometricPrecision; image-rendering:optimizeQuality; fill-rule:evenodd; clip-rule:evenodd"
viewBox="0 0 445.63 296.92"
 xmlns:xlink="http://www.w3.org/1999/xlink"
 xmlns:xodm="http://www.corel.com/coreldraw/odm/2003">
 <defs>
  <style type="text/css">
   <![CDATA[
    .fil0 {fill:#20284D;fill-rule:nonzero}
    .fil1 {fill:#48DEAF;fill-rule:nonzero}
   ]]>
  </style>
 </defs>
 <g id="Layer_x0020_1">
  <metadata id="CorelCorpID_0Corel-Layer"/>
  <path class="fil0" d="M-0 290.28l0 -290.28 63.03 0 105.75 172.1 -45.2 -0.41 106.99 -171.68 60.55 0 0 290.28 -68.42 0 0 -90.4c0,-24.88 0.62,-47.27 1.87,-67.18 1.24,-19.91 3.39,-39.67 6.43,-59.3l7.88 21.56 -80.45 124.82 -27.37 0 -78.79 -123.99 7.88 -22.39c3.04,18.52 5.18,37.53 6.43,57.02 1.24,19.49 1.87,42.64 1.87,69.46l0 90.4 -68.42 0z"/>
  <path class="fil1" d="M335.33 296.92c-23.5,0 -44.03,-4.91 -61.58,-14.72 -17.55,-9.81 -33.52,-26.75 -47.9,-50.8l50.59 -32.76c6.08,9.68 12.37,17.42 18.87,23.22 6.5,5.81 13.27,10.02 20.32,12.65 7.05,2.63 14.44,3.94 22.19,3.94 7.74,0 14.86,-1.73 21.36,-5.18 6.5,-3.46 11.75,-8.36 15.76,-14.72 4.01,-6.36 6.01,-13.55 6.01,-21.56 0,-8.57 -1.73,-15.83 -5.18,-21.77 -3.46,-5.94 -8.43,-10.44 -14.93,-13.48 -6.5,-3.04 -14.31,-4.56 -23.43,-4.56 -4.15,0 -8.57,0.48 -13.27,1.45 -4.7,0.97 -9.68,2.28 -14.93,3.94 -5.25,1.66 -10.64,3.87 -16.17,6.64l-15.34 -41.05 70.5 -76.72 19.08 10.37 -76.15 -2.49 0 -59.3 133.37 0 12.86 25.71 -95.79 102.84 -16.59 -19.49c2.21,-1.11 5.88,-2.14 10.99,-3.11 5.11,-0.97 10.02,-1.45 14.72,-1.45 12.99,0 25.16,2.35 36.49,7.05 11.34,4.7 21.43,11.2 30.27,19.49 8.85,8.29 15.76,18.04 20.73,29.24 4.98,11.2 7.46,23.15 7.46,35.87 0,19.35 -4.91,36.56 -14.72,51.63 -9.81,15.07 -23.08,27.02 -39.81,35.87 -16.73,8.85 -35.32,13.27 -55.78,13.27z"/>
 </g>
</svg>